# xmcd
#
# Track frame offsets: 
#        150
#        15684
#        32318
#        43282
#        56662
#        68212
#        80292
#        92801
#        111973
#        126006
#        138066
#        149027
#        158916
#        165859
#        178204
#        190160
#        203093
#        212649
#        223431
#        234605
#        246741
#        253895
#        264573
#
# Disc length: 3649 seconds
#
# Revision: 0
# Processed by: cddbd v1.5.2PL0 Copyright (c) Steve Scherf et al.
# Submitted via: ExactAudioCopy v0.99pb4
#
DISCID=5d0e3f17
DTITLE=Hank Snow - Blues for My Blue Eyes
DYEAR=2000
DGENRE=
TTITLE0=You Nearly Lose Your Mind
TTITLE1=I'm Thinking Tonight of My Blue Eyes
TTITLE2=Trouble in Mind
TTITLE3=Blue Yodel No. 12
TTITLE4=Never No Mo' Blues
TTITLE5=Blue Eyes Crying in the Rain
TTITLE6=Too Many Tears
TTITLE7=Frankie and Johnnie
TTITLE8=I Almost Lost My Mind
TTITLE9=These Tears Are Not for You
TTITLE10=Blue Rose of the Rio
TTITLE11=Mississippi River Blues
TTITLE12=Wabash Blues
TTITLE13=Anniversary Blue Yodel (Blue Yodel No. 7)
TTITLE14=My Blue Eyed Jane
TTITLE15=My Good Gal's Gone
TTITLE16=Those Blue Eyes Don't Sparkle Anymore
TTITLE17=Ninety-Nine Year Blues
TTITLE18=Blue Christmas
TTITLE19=Travellin' Blues
TTITLE20=Blue Dreams
TTITLE21=Tuck Away My Lonesome Blues
TTITLE22=Bye Bye Blues
EXTD=Jasmine Records JASMCD 3522 (mono)
EXTT0=
EXTT1=
EXTT2=
EXTT3=
EXTT4=
EXTT5=
EXTT6=
EXTT7=
EXTT8=
EXTT9=
EXTT10=
EXTT11=
EXTT12=
EXTT13=
EXTT14=
EXTT15=
EXTT16=
EXTT17=
EXTT18=
EXTT19=
EXTT20=
EXTT21=
EXTT22=
PLAYORDER=
